<mxfile host="app.diagrams.net" agent="Mozilla/5.0 (Windows NT 10.0; Win64; x64) AppleWebKit/537.36 (KHTML, like Gecko) Chrome/133.0.0.0 Safari/537.36" version="26.0.15">
  <diagram name="Page-1" id="sTzVlsZ4rsJbqiGcifCF">
    <mxGraphModel dx="989" dy="541" grid="1" gridSize="10" guides="1" tooltips="1" connect="1" arrows="1" fold="1" page="1" pageScale="1" pageWidth="850" pageHeight="1100" math="0" shadow="0">
      <root>
        <mxCell id="0" />
        <mxCell id="1" parent="0" />
        <mxCell id="uA4hNmV2qcDG2vF6_LE--41" value="" style="rounded=1;whiteSpace=wrap;html=1;dashed=1;fillColor=#f5f5f5;fontColor=#333333;strokeColor=#666666;" vertex="1" parent="1">
          <mxGeometry x="402" y="492" width="162" height="144" as="geometry" />
        </mxCell>
        <mxCell id="uA4hNmV2qcDG2vF6_LE--29" style="rounded=0;orthogonalLoop=1;jettySize=auto;html=1;exitX=1;exitY=0.5;exitDx=0;exitDy=0;endSize=3;" edge="1" parent="1">
          <mxGeometry relative="1" as="geometry">
            <mxPoint x="316" y="418.93500000000006" as="sourcePoint" />
            <mxPoint x="436" y="419" as="targetPoint" />
          </mxGeometry>
        </mxCell>
        <mxCell id="fkffijeyhj4ibdIJJxAR-65" value="" style="rounded=1;whiteSpace=wrap;html=1;dashed=1;fillColor=#eeeeee;strokeColor=#36393d;" parent="1" vertex="1">
          <mxGeometry x="100" y="317.87" width="210" height="202.13" as="geometry" />
        </mxCell>
        <mxCell id="fkffijeyhj4ibdIJJxAR-63" value="" style="rounded=1;whiteSpace=wrap;html=1;dashed=1;fillColor=#eeeeee;strokeColor=#36393d;" parent="1" vertex="1">
          <mxGeometry x="290" y="80" width="420" height="240" as="geometry" />
        </mxCell>
        <mxCell id="fkffijeyhj4ibdIJJxAR-49" value="&lt;div&gt;&lt;br&gt;&lt;/div&gt;&lt;div&gt;&lt;br&gt;&lt;/div&gt;" style="shape=cube;whiteSpace=wrap;html=1;boundedLbl=1;backgroundOutline=1;darkOpacity=0.05;darkOpacity2=0.1;fillColor=#d5e8d4;strokeColor=#82b366;" parent="1" vertex="1">
          <mxGeometry x="670" y="157" width="29" height="80" as="geometry" />
        </mxCell>
        <mxCell id="fkffijeyhj4ibdIJJxAR-48" value="&lt;div&gt;&lt;br&gt;&lt;/div&gt;&lt;div&gt;&lt;br&gt;&lt;/div&gt;" style="shape=cube;whiteSpace=wrap;html=1;boundedLbl=1;backgroundOutline=1;darkOpacity=0.05;darkOpacity2=0.1;fillColor=#dae8fc;strokeColor=#6c8ebf;" parent="1" vertex="1">
          <mxGeometry x="660" y="157" width="29" height="80" as="geometry" />
        </mxCell>
        <mxCell id="fkffijeyhj4ibdIJJxAR-47" value="" style="shape=cube;whiteSpace=wrap;html=1;boundedLbl=1;backgroundOutline=1;darkOpacity=0.05;darkOpacity2=0.1;fillColor=#fff2cc;strokeColor=#d6b656;" parent="1" vertex="1">
          <mxGeometry x="651" y="157" width="29" height="80" as="geometry" />
        </mxCell>
        <mxCell id="fkffijeyhj4ibdIJJxAR-46" value="" style="shape=cube;whiteSpace=wrap;html=1;boundedLbl=1;backgroundOutline=1;darkOpacity=0.05;darkOpacity2=0.1;fillColor=#f8cecc;strokeColor=#b85450;" parent="1" vertex="1">
          <mxGeometry x="641" y="157" width="29" height="80" as="geometry" />
        </mxCell>
        <mxCell id="fkffijeyhj4ibdIJJxAR-4" value="" style="edgeStyle=orthogonalEdgeStyle;rounded=0;orthogonalLoop=1;jettySize=auto;html=1;endSize=3;startSize=3;" parent="1" source="fkffijeyhj4ibdIJJxAR-1" target="fkffijeyhj4ibdIJJxAR-3" edge="1">
          <mxGeometry relative="1" as="geometry" />
        </mxCell>
        <mxCell id="fkffijeyhj4ibdIJJxAR-1" value="" style="shape=image;verticalLabelPosition=bottom;labelBackgroundColor=default;verticalAlign=top;aspect=fixed;imageAspect=0;image=data:image/png,iVBORw0KGgoAAAANSUhEUgAAAHsAAAB9CAYAAACCnhxiAAAAAXNSR0IArs4c6QAAAARnQU1BAACxjwv8YQUAAAAJcEhZcwAADsMAAA7DAcdvqGQAAEboSURBVHhe7b03kyXZdba7Uh0tSp2SrafFCAxngAHBIGiQDv8PbQaNKoMODTo0GTBpMvgHYNJgMBDBCAJDcCCmp6dFaXnqyFTXqPUk3s7buNf/4jsRGSVO5hZrvUvutXcGf/mXf1mGYWhFUdhyubQ8z60sS0uSxJrNpkVRZHEcV1ez2bRGo2FBEFiapjafzy1NU8vz3PiUZfnelee5ZVlmURRZs9m0VqtlURRVfS4WCyuKwoIgsDAMrdFoWJIkVZ9BENhyubTlcmlmZkEQWKPRsN3dXXvx4oXdv3/fGo2G3dzc2OHhoR0dHdn19XV1fxzHFoahhWFoWZbZ2dmZLRYLS9PUgiCwOI4tz3NbLpeWpqkVRWFRFFkURdVYzMyyLLMsyyzP82pOWZZZGIYWx7FFUWRhGFY0Y45FUVie51YUhZVlWf0vCIKKjoyl0WhU4+W55XJpWZZZEATW7XZtOBxas9msxpEkic3nc5vNZpbnucVxbK1Wy5Ikqdr513/91yBIkqSMosjKsrQsy6woiorgzWbzPaInSVIRgcmnaWqLxaIiVJ7nFgRBdV8QBNWAzcySJKkmxHcQDUIAina7bZ1Ox5IkseVyadPp1G5vbyswrq+v24MHD2x7e9va7XY1FtoDIICYz2w2s8lkUhGnLEtL07S6D9B9iNkQHrDofOM4tkajYa1Wy9rttsVx/B6gaR9mF0Vhi8XCyrKsGA+NzaxiJmMPw9Da7bb1ej1rNptmLlhhGNp8PrfpdFoxu91uW7fbtW63a1EU2X/9138FQbvdLpMksSAIqgGEYWitVus9dMA4UKgDUMKC2PqgZ7NZ9V0URRXTuUcJDsM7nY4Nh0Nrt9tWFIVNp1O7ubmp+o6iyFqtVgXMdrttw+HQ1tbWrNVqWZ7nFUDoH4ZMJhObTCY2n88rcBRFYeaaIwxDK8uyAi1/I9l1ZiMQMLvZbFocx5amqc1mM5vP5+/RJwgCy7LMxuNxpRmQaDN7DxCMScEHuOI4trIsK0DleW5hGFqSJNbpdKzX61mj0bBf/OIXQdRut/eTJKkaoGP+x+8MJMsym8/nNp/PK2AEQVBJpbnaRHJR43zHwIMgMHOwxK7ymGTu0s73kWse2ojEBACA6XRqRVFUICrL0ubzuY3HY7u5uamYDTEXi0UlbUgHc+GesiyrMfB/gAq9YG6n07F2u11pQwQDWtEPzwMGHTP0py/Ao/0xd9Q6fAEMzIP/oRnOzs4OolartQ9zmKAypnA7A5KQwMKlj4kh3SCdDxLDhBQ4pdt0JSjM5v8KpDzPLRLTwH2hmx00UVEUNh6P7eLiws7Pz+329rZCvJnZZDKpAIKtVEDRtoJUma1g5u9Go1GZp9IlbTqd2nQ6rXySOgMBOD/VnDEnQAAdShce1RK0QTuMF3pGUWTn5+cHUafT2WeQdAgRadjM3rNDTJznCrc9qESeVcZ1Op2KGbSh7TM4ntP/wVzapv/YHRGVKjOz6XRqV1dXdnl5afP53IIgqJzCNE3t4uLCbm9vbblcWugqD4nBJsNsxgFQYDi0UvUPYPAdUPUwGomORIJpCwbSJ8LRaDTe68tcANM0rWgRuNkMXOhyF4pWq2UrKyv24MED+93vfncQNtzeqdSp5CERsRv9Xq9nvV7POp2ONRoNC8VrLF0a+TtN04oYEI8L9IJamAnh+DCGTJzBPM+t2WzacDi09fV129jYsPX1dev1ehVDZ7OZLZdLC4LA2u22tdttM7NKteOcIZkwCd+DsShoGcNyubTZbGa3t7c2Ho+rCx8ABpuYqdhNVeCSWIhHHrraBQT6N8yEFib2m0t5SBuJO7CfffaZ/dVf/ZWZmUWj0Wi/3W5XyKAhBheGoTWbTev1epVnx0CVqSCNZ3RwTA5ica/aqtKdH+4BxYwFSVDUArzBYGDdbteYB/2VZWmxh4thGNpisagcs8DDHLRV5r4I6rHOJG3T3OajohUYXOZM4Se/m9AF+vE3DI5rfpK2o/NqtVrW7XZtd3fXRqOR9fv9ar5ra2v29OlT+8lPfmI//elP7Wc/+9lB8OzZs8obB710DiPjOLbBYGCDwcCiKHqPMKAcFR64KgHdoDN39QQgIHSz2bSiKN5rD3UWuUeOFjEncqPRsG63a/1+v2J0kiRWlqUtFgsbj8d2eXlpNzc3tlwuqzGk4jDFcVyp/9BDF1Q7BFNnK3f7DUPSNH3P5iswADwABww8CyOhcenq+P8PLNCmLMvKfPX7ffvJT35im5ubVhSFnZ6e2nQ6teFwaB9//LH9+Mc/tk8//dTW19eDYHt7u0RKA7dtnU7HYg8bxuOxXV1dWeCSQEimTMxqiQZsFUxFqpTRSCDPqdQg1XEcW7fbtV6vZ0mSWJ7nNplMLAxD63a7trKyYisrK1WMrWp1Op2+F1oVolYTCSdhJlIWeizbarUsdn8EkDAutY9BEFQqFObSlgIX+imIEBw0GYwv3XSgAWN36mL3dTBL/P43f/M39sMf/tBarZYdHR3Z1dWVDYdDe/Toka2vr6MdgmBtba1EmnkY4mZZZpPJxC4uLiqJh0CgE0LxUe0AIktX0TAaJyXP88rGwVykInZVBmEKdwJns5mFYWi9Xq+y1e122xaLhV1cXNjZ2Znd3NxYKkkSk6wezGLMzAfmA2jArhpHn2FekZuUVqtlZlbdi3ov3TeBYTAZugEiGB2KzUbDdDod63a71vKcAiC5vr62oijsb//2b+0v/uIvbDgcVhnEJElsd3fX1tfXEbggWllZ2Q/ESXAUVMhC4kqJlzNJG/I7FwSpoxNpwa6G4tgx0cDVVqPRqLz3MAxtuVxWtpYxBa6FUOHL5bKSapwvAKTgRCp1PoF7szCCsc09KzWfzy0XZy4Mw2ocfGhPTUXhSRydd+mO4Hw+rzSPjhP6o9XW19dtZ2fHtra2bHNz0zY3N20wGFTMXiwW9sUXX9hoNLJGo2Hj8dgODw/t5OTEbm9vLYoia7fb9vd///cH0cOHD/cb7uJDCAYN81TtQAwYA8MABT9hYu7pu9FoVGVzIGbmKgxE80kkRIHomt4EHBCoLEu7vb2tYue8lsKkPeZYijNIO7HkGVIJnZaeBg5d/TP+pXv6OhcugJB4FksjF6VL7mYD24uziEZstVpVRnA4HFq/37dut2txHNtyuayAsr29baGbyuPjY3v16pW9efPGxuOxtVotW1tbs3/4h384iD777LN9GAnzYDSMUEJhO2COMhoC6/+ZzNramsWy4AAhIbgCiMkWHvem7sEXEgGoJpjP53Zzc2OTyaQCF5IcfsDDpd9cUr6AXMdGX9wH0M3MUvdJdJyMC2nCeWz4whFtND21S+662+2+54QW4l+gFRC4UNK4tBO6g4ljenl5adPp1OI4rkLTf/zHfzwI/vqv/7ocj8d2e3tb5ZAXHsvqwAEEUoGqYpKoQpgNUKIosm63a2tra5Z7jhwHLpfVMAinoIEBJgBAegJ3jBgbgGu4T2CycME4Yo+nb29v3/MVFOgwF5AgtcwvcccycFXLmJa+0NPwSGEwGFin0zFzO75YLCwQBzgRJw8wL93eM66WJ0U2NzdtfX3d+v2+NZvNCjhooOVyaYPBwNbW1qzb7Zq5hur3+3b//n17+PChffzxx0G0tbW1f3NzYzc3NxWz6Sx0JwFCK5JVDXIf3/OBILQxm80qG4jklBKL84xJRgkiohJ1PIGr0UBi5n6/XxHFJDbmgqE8C4ABHyCn/VJsO98XbtrQcnxit8+DwaBawCk9Rw+zAUK73bZGLYdPWjdJEuv3+7aysmJra2u2urpqKysr1u/3K0eQeTH3lZUV29jYqFQ+GqUoCru9vbV/+Zd/OQhevHhRTiaT9xIE5mhvuC3HOw1l3RvJUMLkbutRQ0gUakjtYCF53UBWwtAOhZuTpac0sX2l552LmvPDha1PPRRDimFiIWEmjFTwoQFgIuPgOWizsrJinU7HQl8cQvqRbGzrdDq16+trm81m1mw2bX193YbDoYVu96+uruz29tam06kFQWD9ft9Go5Ftb2/b+vq6DQYD6/V6lT1PPd17fn5ui8XCkiSxR48e2e7urm1sbFjiUZSGofP53P7u7/7uLs5GdSiqlfjYWyQApBZuk0N3POaypqpqGdUKGOgH+2cuFYCLvrQfmNpoNKr2mxKWqGosPExjwtPptGIIUg0zmc/SHS7tpxDnM5d8QhAEVXwfe/aN/9M2Y5m7c7nwZBBSl3vO4OrqykrPJg6HQ9vd3bUnT57YkydPbHt727qetYS+Z2dn9vLlS3v16pXN53MbDAb253/+57azs2OdTsfmnhy6vr626+vrKrn0s5/9LIiCINhP3SEra7lX1BwdWm2hBCQ33NPE/vA8hM/F+0Qyml6xAqCQ6EDMAM/yTJIk1cJ9x9dqUZmgn3HSH2Ni3EgnIEW6mQvgwSHCL2h5jMtYYbSJ6WHMaofpmz4Dz4QRPeR5bp1Opwqxnjx5Yp988on94Ac/sE8++cQePHhgq6ur1mq1LAgCG4/HdnJyYqenp5ZlmTWbTbt3755FUWS3t7d2cXFRaRK0TRiG9h//8R8HURRF+0tJ/KPiYklwoMr0guFMAMbyPIRUIpeSDVKVq8+jZeoaBqJji2A4Nhp7BmjQGpln9Jgj41aARZLsaboDBD3oX8fJnHMvYsD8wdhUijC4H3oyR3yj1dXVyi6vrq7aaDSyvb09e/jwod2/f99WVlbMPOK4vr62k5MTOzw8tOvrays9Umq1WjabzWw8HttisbAoiqzf79v6+rrt7u7azs6O/du//dvdejaoBO3YLNTpdDq1pXvdXDAP6UNiTBIqdUmC0RAVQPA94IDIgALJQrpCSXW2fEGk3+9br9er7mPsC8+64WMgZRCpKWFl4p721KtbmDNz0bnPveYLhxMGK6AAK3OOXB0jLFEU2Wg0qux74Wax7RU3vV7P8rvCA3v9+rV9//339urVKzs6OrJbL88CRDB+bW3Ndnd37d69e/bgwQN78OCBPXz40P7pn/7pINje3i5hEETnbwaWekwJwsuad1tKmk+f42cp5T0q1aHbekCQ57nd3t5almWW1IodeBYmhp7kGAwGtrGxUWWWQnd8bm5u7Pz83A4PD+3w8NAuLy8raYrjuLKdSBvzWSwWdn19bZPJxMzDHwUm0qohKnOLxLmLXBNgGlqtlhVeWjX37Friy5BNXwzKssx6vZ49efLEvvjiC3v+/Lm1Wi07PT21V69e2evXr6vMGDQibbyxsWEPHz60R48e2Wg0qjx+/I9GoxEEz58/L+tqKssym81mVUaqdLWHRAW16pFckhOR1JQpcQqpb0NSE3diEreBuTsthCkmhQOq/gFUEATW6XRsY2PDdnd3bW1tzaIosvl8bpeXl3Z2dlZdNzc3lTqP47jK5kFkwFMUhRGdMG8kHqkN3O7iPCow+WkeX5dlWWme0JMfc898Re67MA7y/pubm/b8+XN7/PixdTodG4/HdnZ2VqVHY1mxa3nKeDQa2fPnz+358+e2urr6ngZ0vgbBZ599ViIxMArJuLy8tPF4XBEa6QXlEB3VS+O0Fbpti6LoPVucuA3GPtJm4V40ajCT6oxYFgVgUFEU1mg0bGNjw/b29mxtbc0Cd2LOzs7s6uqqil/nHn4VHrI1m00ry9JmXuSQeGwLmJA+aIKahtkAx6SKxyXIQtcut7e3lqapdbxwstlsViCBLjqWqS+Z9no929vbswcPHtjKyoqFrgFLNw1dX95tecx9fX1t/X7fPvroI3vx4kUVghWusaI7J/tuIQSnAsYtfGGezhkQk4GZEAKNELhj15ClUGwjSFYVF4hTNp1OKw9SgQSD+ODcML6lx+ENTzVOJhM7PT214+NjOz8/f6/WjDEQpmWyLh9FkfW8GAJPG6kOJURUYJokUrq+KhVLiXQqiza0wXygFUIBuEu3w21ffVQHVH0T/JOiKOy7776zy8vLSmuVZWmTycSOj4/tzZs3dnl5af/8z/98EDUajX0IjWc587pq0A1yO52ONb0qkkkHsugeiEoGHLEs0odS7wUzkRgIQ5smOeJIliGXntCp28yWr5DN53O7uLiwq6urCgxKRCQ48QUR+ux0OpWdg1mMUTUMn0xSqAA7+UARCHSiL9pVJqey2SL0yqC+Z9AGg4G1Wi0r3Z+4vb2tFoUI3169emU3NzdVf4vFwg4PD+3Xv/61/fd//7e9efPGfv7znx8E/X6/RB0l7gzRcOoxs3q6TBQ1WkjqNPD1cE1wwNAsy6zhXmnpahJnxaT8GAmg7VDstbnkYvcY32AwsO3t7ffUOCoUIMJotIu5lkC9t9yrj2VFiXFnsmhCe8psHKFYNgWg8gEsz4USSUSe6cMkBJ7U6ff7trGxUc0p8R0fY69zK6WAM/TlVuz26uqqlWVZJV8ODw+t3W7bz3/+8yBotVplLkkFmJSJatfvSk9XKiHNpY+BotIAzWKxsNALDnq9npmZjcdjOz8/t+vr6woIiTs2VgvVVBtMPUOnICp9vZw0JZql5Xnq1dXVqiBxNpvZL37xC7u5uakYirShUTJ3UGeynQYg5rIdhz6aHlYBDNqKa74L46Y/c1Avpe4tkSQT8+fZwv0Nkj6Yw48++sg2NzctjmM7PT21ly9f2uvXr+309NTGvglhMpkEUavV2kfVgLpAkgfmzgkM1cGXtdALWw2xkSBAEcsqEcREFae1ZA0MV+BBFD6MkbEwRhgTu+1bXV21ra0t297etk6nY8fHx+8RnvYzyXSFbpc/xLRAVsAUAHWJhunQqc7s0lV44Ct4mvb9Y7RViaaNJElsOp3a8fGxff/99/b27Vu7urqyVErDptPpQTQYDPb/GOpg/NIdmDojITZqqelZrqYU6pVu9xaSZUINo0IZNMThKl1dLmWNGQmHEZEsT8Io+oTwsYcqHV9IOT09rZirIPuQdKlWoY9Go2Grq6vW8YWQhdfMwxjGk4tPwnwVsDA7SRLreq1d01frGA+ARWOFrraZG2A7Ozuzt2/f2rt376qcgplZx9O/l5eXB9Hm5uY+RGXiimgQHrrjgNMVSD4YdVOX6MLt+VLCEAaa1cI1JAdiKaG4mDzfmzMXwvK3eRWqqmLumUwmNh6PKwbzncmaQMOjjobsRVPidzyX3fTQEZoBeNVoCtY6fc39JMxP0xeLAEbhoSXfNxqNSisuPMa3WgRydXVVRTWB+FBnZ2cH0YMHD/aVYLl4i6gpJA7pU7Wn90Ic7slroVxRW79WzRC6imQcWa2ujecYj0oRjAOQSAeEpr25r0Axdp0rvkFS27HCBfjV8zZnaOzOX9tjbcAby1o+9/KhzZ5vuGDMaInMizrQSJEs2wJgc4EiCTTzDGEh6Wa07enp6UH0+PHjfUWvOdpUHfNdWtuolsnaN+qu+EA9FhNQKeajIOMCREgaRIPRVrOrTLDhi/hra2vW8wpZ+lSCl64+U/dFkEi0FvNQjQKQWl5GjeNpnlTp1Aor6gznb0DNpSYR2gEgHN4kSSxNU7u+vrarqytb+GJHLKXOtI0QEF3gBxweHh6EPMRP1HHXN333vepDGYlEQHQmUrqnPvOFBwgCwQqxVbk4NXOPm5ceAoJG7A1ePDaSfq1W69Zut21lZcW2t7ft3r17tre3V+2UgKiRbHJQCUIK4toGRwCuwGj7FuKllBA1ZGNhIKVKKhTQF+2jahnpXEoZlZqRVLb+IpQA2CR64Wq6wzcYDKzf75uZWbSzs7O/lAxW6cUGHc+9xnFcecwmk21JDTNSXUrBQSbF8gAEVJvE6lx8r84I7UYumaAXiYUhhZcJrays2NbWlm1tbdlgMKi0kknlTRzHNvOEBLYN4AA8QJC5CYLAaI7BYFDNDSmEeYHb8MlkUvUB2JkLTI89p4EQKS3QbIyNeQIEQJDLXnHtB4Hpehj87bffHkSrq6v7ODNMCgYG7okDgtidE2LpWDJpIF0nh6pi4DBLPzA/cm+fMpyGJ1GQDtoDgEyUySPVlP0kvoMEzcK9eZ5X5TpTqWBZem36rZcIQUDAG0jJ0OrqavVMlmUWu8fc8gKDufsG+Ael1OlxAWAFLL/rT/1e6amgREsCSBgMvdM0tbdv396FXqAi+0BFxWQysaVnd5B4bYzB0AaTY2AwVFGdyHZULlDYkThT1TtM7fV6FsjWVKSqrhGWHgGwCJK67zCRvdloIBib1sKxusZZXV214XBojUajWmQBCDhuha9e8R3jjsVRU+Yq2FUY+BmILQewC9/PRoKJexNf8u37Chv8u7m5sevr64PgyZMnJSiFqTAbZCtBuRJfVQHF6gkqApkUSMYMtD1mzKXsiGeWrk7VhiXuRPX7/YpxhYc7gKft1aXE00glxF3KBnkICWE7nhuPfIVO+wboqtGOj4+r7F/TiwaGw6EVRWHn5+d2cnJiE18Tj2TZl35hbtPTx9AcmoW1fePQFmbP/CSJxEO3WCpbkySxide3TXzJeDab3a1ng2RFSeq7FOfzeWXsO569wVZz30ziWdSVSegDMgu3rYPBwFZWVqqJ8sl8b1ndngK2hpfe5rUECGNGa8RuC9FUTXcwkYjFYmEtT3MCvq2tLdvZ2bF2u23T6dQuLi4q6Qd4aK1Sas9L93HwfPM8r4r9UveSrWaOGHfsZhHhMEkOIVyRr8/DNOYOYNC2CAPaZewbMiXUDKLRaLSv0sfg1N4hNW2PI2EMk6dzGIM64n8QWqWU9mIPH7A73AdwGu7lNmSd2FxlJeL5QoRckjGARZ0n86wS+fKtrS17/PixffHFF/bVV1/ZJ598UhVCsAqGlsDGR+LTMMdQ/BbmCTNC2faj4IZh/A8gmXv3aNDMPXbMEfNve8Siwqd8g4ZOt4Oo1+vtzyWNB8GQytyrH1FhDS8fmtV2jvApaltcYTqSDaohQpZlNvWar7lnjUxWwZBcJLqUJIa5ZoEA9MUcuBcAmhO445WpXd/2u7e3Z8+fP7ePP/64quYEWCwjjsdjy7LMWr5Lg3AGoNE2AsMYYQQqmnsAngoFvwMS/CLMFsIVufpHM5WeN0AA0WjMPQxDm06nB1EQBO+tZ8MULjOzgW/E7/V6FRH0fhCJdNIegzOxV6hkJBoVhSMG0cJayMFYkPLAfQpscizhDM/Vicg4GCtE6fV6trW1ZaPRyJrNps1mMzs6Oqrqs4+Pj208Hlvux3v0+31rNBqVFNMXc8NEoAnrYwJ8Oj4YE9SSMiaALmtVPqFsKgTg8APtE7pWub29PYjKsqxKiRWhICL2UxeYIAxCpUC8oibRTIzvaJtJqLTWAcbk+D8S2vA4t+k5ZNRV6BkjQMBzzEXHkKapXV1dGVueZrOZBe6AlWVp5+fn9vvf/96+/vpr+5//+R/77rvv7OzsrHLY+KiThBSHbnbQhG3Z1M84QjlIp+EmEToHsiDFeKFPIHvbMH8AAU2AlKPVaM8F8CBotVqlSa5WJQRpWFlZqTy+VPKzENpkb5aqEDqDcTC6UTvwhQllEruCTu5lkmtra5b5YXEwC7UW++6MhacxVVoAJeMvXdN0Oh3b3t62jz76yPb29ixJEru6urI3b97Y4eFhVcjP84lXpoQev1oNwJgGtGDhdnziCzAABJqxKAMPoBW84EJjAJBUHGhst3kZtDq3oa/KXV1dBcFoNKqYXbhN5RPU1CBoK2RPVCDqFEnnftoESKiuvLYDw7wIPvPyWIAQu1et6O73+1Z6+DGX1GEma95WKwLkO8Ck0tD0IkZMVeLJGKpCIFogGiP2JEouK1RRFNnm5qbdv3+/qgVHDTNeToa4vr6uNAX9wPBYVLzVvHPyCNCLKChxZ7V0R3LpvhbANDM7OTkJgo2NjRJiQjg+Olh+wkycD5P9UjAEYMBg1BSSDAiQSKQkl+wdE0ZSYWzLs1Tcr/2lHovGsjoVeS48F5U490UZ1Rh9L+pDReJ7ZK5lmGPqdWJtP8dl7CVQYRja3t6ePXnyxHZ3d63f71dzTdPUbm5u7OjoqCosmHvYht03ya+rVmTuhS/0NNxUIUQqoIA6d02kWujt27dBsLq6WoJ6JZ5JFgfUhVIqDPNM9h/DLH0+8qSAmVnfa9maskAfuPaAKKBSVV0qB9ACQMAUS92aSQ4cGwpB9ML8AMLEExPqiMIoE8nEfDHOW984eHt7a3Ec2+7ubmUOSNDAsMvLS3v79q29efPGbm9v32NS5KlizR5mbtamfhBQ6hUtoWsZ5tnwqAYapeJHcQ/Mjjqdzj4dI62oUAhLR6pim3ISABfIhNiAAsS1PeXIEiRq2iSbBegYMMRGMvV+2o/EF+jKdlkYrURinmHteAzABdhpD8lX02JmVU09Etpwk9T0goaFJ3DwbWDG4gNHWw58V8vKykplRngG4OscmDvaCx4tJb6HnoFrgclkchD1+/39yNUphGp6xklvVpVHaAHT+YmjAEFM4u40Ta3ppxJiG1N3MpAWJB1pQ2qRyFJMCKDiHuaAnabfXE5RoF2kFgCZaDEkf+GePmNXoJWuftEIKysrNhwO3zMxZN8avk13fX3dVnybrwoD3+ME5+4HoClhMmNHsHg28cpTnDWAFIhT6vO5Y3booUtHDoFTQiR+6gFAQKKU2WgFGK0SA9G4BwaSTAHtqDMYGdSqXBkL9yC9CgKeS2vJhabHpi1ZczYHc0O0GeOd+Rozqc+5lzw3XNp3dnbs4cOH9vDhQ9ve3q422NNnw3eqPHr0yJ4/f/7/2m8NuErZicnzmWxH4golVFVJN/HAsf180GzLuwjnIOp2u/vmdgOJzmSnhEklBurRRN3BOAYJSGA0v4NSkzCtHia0xIMGcEtJXETuvHGZqy8IDOoBgGqsjuf1ASdgpU+IrXOZ+8b2iR+0NxwObWdnxx48eGA/+tGP7Ac/+IE9ffrURqNRJSRxHFu/37d79+7Zxx9/bJ999pk9f/7c7t27ZysrK+8BMfc8OuOFVnVGW23rsap3mAmN+NAmv6dpehA1m839VEKmopY0MUdpU0qUMglh5p4BYx04rZ1qBOEy8dTLWoEjjIGZjINJAJxAwrdAPHDaMAkXkcC6l809zAlNZVL1UkjNW+FqcWVlxZ48eWKffvqpffrpp/bDH/7QHj9+bDs7O9WyJ2Zqb2/Pnj59as+ePbMHDx7YxsaGdXyP2q2figDNDg8PqzkuZd0dJgF4GM340tqytAofQqX/Xy6XB1EYhvswCCbUpSmWGqmF7AND1fF36o6c1eJeUAzyYZgikUEqE3FoFMnYWwUTRDEnUCQxNJIcSL36VIofM/F40TKAivF2Oh3b3Ny0p0+f2meffWbPnj2z7e3tqlQKk9LwDB+b8jY3N63b7Vrp8e/V1ZWdnJzY8fGxnZ6e2vn5ub19+7YSnNQlHh4spKhk6VoW7cX9ZvaeHxCKeTDJIC6Xy4MojuN9pAaJgrilpylpXJm7qJ3GaxL2QFgGX0qJjUqmDh7iwri5JA1APH0osxkn/2MsTLqo2WB2pzLHubxtQB0cng89Hh/6eScPHz60nZ2dyhlDEAB0kiS24icXUWgxm83s+vrazs7O7N27d1V2juMylNmAXOefivajP+ZNf03PV5hoKO5J74T5IGz7bkFiPCU+ahvbRXVEJkuHqMmuV6+ELqE8rxJWtz9MDjDwnWqOumSrRAMkvXKPy5W5V1dX1UXIhFNo4shoGwAZwCw8zlagK9iVuAre3GvVdb/4xcVFNQ76QovN3bNmtY0YO5Q18EA2FBIWRpIAU2GifTOzaHd3dx8HBWbUH8B+l7US155vb1U7C1OQZBjP7xCTS/tCCmEwzATRSH7p0stYYQp90pcCN/LkDoxS9e7IrwioDpzSpOlFjYRKDffi8zy3y8vLam8V88+yzG78BIjj4+PqFIijo6P3iiP41Bmk44JH0CkQv4M5cD80BwDFnZAcRHt7e/sNT2MWctKPShJoxenpylaVulqFSTyvzKF9lQgFVSaOH9+hHXCillIqBGEYXyxryIkngLpeEk1WrHAHlGdRl0pUmIgkFQ5Cc/vY6XRsNBpVUjabzezw8NBevXpVLZ6gVY6PjyvVzcWSKbQyWfkCqNDTPHRUCUbocC4XUhiCMAJaBGS5XB5E6+vr1fafeW0DAEzhQS5VyTDNRMoADBPhPhCrEq0qj3EwSUwBmqOUExG0XZOabMIrpLTX69lwOKwWXFLPZ8PoiZxJHnv+wGqeeSoLLNCg2+1W9v7w8NB+85vf2Ndff23ffvutHR8f29nZmZ2enlaM/v777+3Nmzf27t07Ozs7s4mfs5p7SIr2AkClLFVCB8AAzRjrvJbFw6RGkkmbTCYHUbvd3s9kiw4eqTnzQk/6a0egD2YxyFDiVCYRu/cNEGAyEwA8oFQZyX2K9NQ9UAgCMWA05gjiwJzCqz7xB3gWgtJmIQUVgMBc8pD2whNCx8fH9vr1a/vtb39brX+/fPnSjo6O7Pz8vLLTJycnlTN2fn5uY696oX+TZVKdL8IGrXXO8Ic2IjkEsOFr8/Ahu6vtOwg2NjbK2E8LRqoDOXQWZvKBQUyc30M/9QBHaOF7shuugtEWAEjVbUMOTMcDVVQzeRjOB+Aoo5FqiBO7ai9qYaMSShmuRE7kCGlCLE3OAPD5fF7Z5Rs/AYFnEqlfx2lMfYkVukAPFYxUXn7D91wqdNwPzxryeg0imcXdCVB3q15Nr/LEMQql8sPcTprYDiQd6cRJW/jqzsXFhS18PxLq5Mbf1wFgmp4irE9QzQgMgAmMAeYDHDSLSnIoYYgyFMIowQqJ62F0KHu7Wu71RuLXzP0VUvTB2AEqtAndIweogJV5T/wkBWUeEsxYPvQ9QGautAttFu7d5y7Zy+Xyrnih5ackYGdRCYrKyHcUduW028xDsI7n1M1PVOAIJxhRFIWd+ctOS1lnReUowZggk9Sfge8ICaSQAIJDDNDdkkUJVcdIAMxI5BgrxhfKC9SQXkDGfZg7GAkDslpIqL5LJKq66dEAjhr3c1/9w3ehLOd+aPzQjnHxbJqmQfDw4cPSnNg0oGp14Z4eqiuSNVrsZ1NWm+qSMpUjp0Fj4uqR+NzcyWCwJg4d7aSyU9NqVaWxe6AQMBGVSFtKdKTcBCQNr/3Gazcn0kIKJ5Ca1B02aAMgl555RDAiL6FG0pHKyLcrtdvtqu3ChWcphwkBCmgOuEzCzMi1Is/qfbHn6Xu9nn377bd3R2Mh8iCSQSE1qYdiSAn3whjuQY3RaSmrNLnsn2ZhAqmnffpgHHyYAOqdycAkvM+GVHEwNvovpQSZ8XBf4faZBBGMyj0vPfc8AwxhPAoYJB8moMJLNxvqgEKbwkM6/ma8jA1gKGiV4QAVLYwpgwaxH+43HA7t+Pj4rm4cApp4wDQEelBRdBRJ+ZA5s5HAUkpescvYMh3Q0g/XY5GfC3RDKAUfRDeXaBgdS7ECBM1EMzH5plfJAGSdM5rBPOYHvGimmRwfVrrahdh9f8dYz0+VgjYITyxp57qgMG4FptXUPsDhe8aMloTZzIt70HgnJycHwebmZiVCQa36AwJ3u13LPI2Z1SofTZYsc1d1TX/DX8urKObzub17987mXpiHqShd9dWljIliHlBlRVFU/kBRS4JAfAiTiwkoJfvV88Nf+R6gB755AEcslVw1Khswm5dYNT3UWVlZqZY5AQkqXbUC4J55+TIJGu7Dtyik5ArQBLLnG0byfdOzaPCB9ph3o9Gw169fB8H6+nqp6AncEwQdkVdNFh6nLmuhgtXClUhWnCD6bDazk5OTikn6fCjFchAUKVS7jopmIYbJgOZSthUlHhkoYft+JPNgMHiPMHPZx4UEFm5azFUloIQZSZJUR01ubGzY/fv37d69e9btdq1wTxggaR8XFxd2fHxsl5eXlmWZtX1dYuwvcrm+vrZlLXkDo0vJ2VttSZNP6Q4hQEZwyru9aUEwHA4rZgeuAlRVJElio9HovYaQTmV2Xstz6/8XvlUWCVbpBrmqNvPa291hIOhGCiAM4ESjhGFY5aRns5m1/HVHnMIQe14h9RpyQEFbqP7AY3iTypvSX7Ty5Zdf2tbWlu3t7dmzZ8/s4cOH1vWyojqhM69zJ6V6dHRkk8nEIlfzl5eXdnJyYufn5zb3ylc0Gs8v/8h26FDWJEoxY/CQ59M0DYJut1uqXWaA/A8CwrxAbEVdjeO4KeN1wgwOyVdtwr0mqOUCvTAb0GjbhXvqTT/OmRrtNE2t7ycGbmxsVE5Y4NI98a2t4/G4UoET30hffiCpE0WRra2t2U9/+lPb3d21+/fvVycI93q9CowqobEnT87OzuzNmzfVeeF5ntvFxYVdXFzY6empnZ2dVZoI+i7kCEtUOLzhKiUTCJOhF9r19vb2rroU+6tE5UaYAbO0EZ4zcWi0YoWPDgagkKxounfOwXT37t2znZ0dW19ft47nsxeyvptK3TZ+AQwBMIwF1dzxjXzY5M3NzWr1qisFlsyf/gAVEsLfcRzb5uZmNYa1tTVb89csBX7yAsupt75hEROF1mJMkdTdNWtJHDQQz6NZzH2auGbTueBLU5aWb29vD6KNjY19OopruxFgFBMG3SbJiVhsJuoGpirqllJeBANWV1dtZ2fHHj16ZB9//LE9e/bMHj16ZNvb27ayslIhm+KC6XRqLV/cWF1dfW8HB5pFQdXy04K5en6qLwWCfT/GmXEWkh2b+8qYShESnvtmhcjfn7K+vl4BKPGN8EdHR1WRwtHRUbW8ydJm7lFNy5NLAA7aop6ZF1oVRiaSOuUZvm/U0sdBENj19fVBNBqN9mEyksyl/4fxECCWhRH7w5pp9Z3aWJwVANLzXZPPnj2zzz//3L766iv7kz/5E3v+/Lnt7u5Wa8WpbPQ3M+t2u/bRRx/Z/fv3bXt72/p+nMTMj7WYyynKQ3mtYcczfwN/eUxfdmvM5fwTbDVquKwtnYauEjN30trtto1GI7t3757du3fP1tfXrdVq2dzf0nN0dGTHx8fVUdBv3761k5MTu7i4qMDblPPPADUqO5WjS5TRoWtbeKIAh9lc8OD6+vouzgatSG1U21BHB1EtHAq99FVVFE5XKJk01Gm/37fNzU178uSJ/eAHP7CvvvrK/vRP/9Q+/fRTe/jwoW1ubtrQD2HnWfMttVRr/vjHP65qwFqtlmWyyW/p2SvMwurqauXJ67izWlEBDJh5ChRHFAlj7qEUTwyHw8rs3L9/37a2tipfYDqdVqtdl5eXlUq/urqqSpOvr69tPB5b6WeD61g4taGuTRGqXPL9qHZAqU4v403vzlA7CEajUalqO3Kb2pSSW7VVHV/1SfxEgLGfPLT0ovmW56QXcpzkcrm0Tqdju7u79uLFC/v888+rMtydnR3ryia45XJp19fXlcMy9sqPpjuKo9HICo+3X716Zb/+9a/tl7/8pX377bd2fX1t5vvJCbMiz4QxfpjBRSiXyXo25ghCIzlosbIs7fHjx/b48WN78eKFvXjxwh4/fmwbGxsWhqGdn5/bN998Y7/5zW+q91mTOML2ogV3d3et6XvCT09P7dIPice/AAxT3wiI8AC6wON17H3dtJYeXfzud78LomazWUk2RMk8zECNmIc1ZIn6XpqLqkbFECphJwBREATVO6t+9KMf2Z/92Z/Z559/Xr14DCKa5K0bfhgsRX4PHjyo3gdN+DSXpcVLP5yV57mYz8Lz9OPx2I79LQPs01aHEkkG8GipSHyAwWBgW1tb1vXXOReeg7i4uLB3797Zy5cv7dtvv7V3794ZGwzQFtB64bE4GjIXR6z0/AFAnclbhhQsALDr4alq1UCygnEc29HR0UHU6XT2IQzEXnpqkCuU4xGxMaiWSEIAHAOIhLSaWfXaoadPn9qLFy8qRAMIiADikWSSKi0psym8/vrk5KR6BdLJyYmNvZBQGY6UQrDxeFyp7FxSvxBKLwiOtsOZAtCFnMA09veSvH37trLNZPvUD0AyGSNOYuzJnExCy9S3ESHZPMf3jL3b7VYqO5diScYdhqG9e/fubkeIqgQIRKe5l8ei0jOpvWYiS4mxg9oGQHMAUVrb90yWDhCGoDpBJb4CgChdpV1cXNj3339vv/3tb+2bb76xly9fVkdRQUTuh2gQfOanG5rsee7KK41R5ZE4phA1FkcNUAIM/odGRPIyOTOGMCyVFbiebHBM5chK/CBorCBQ4Yx8BQ3NwPNqhpZ3Mf7dXi+Ioo1AcFRBIBvW8F4nXlR342/ozXwtHHXe9rVn2mbg5pIMEXCw8ESnstnPXLXS/5s3b+zbb7+1X/3qV/arX/3KvvnmG/v++++rWnAIQL+5Z7QUlKmc8d3/QJUsJojf0QD6dxRFtr6+bnt7e1VuYHNz00ajURVzm+/DwiHDywYoAAsmj+VNRekHsmXKJ+aJIOYSfipAMF/T6fQg2NnZqV68CtpoPBRbZZJG5QI5kcTNW1tbtrGxYYPBwOI4riTx7OzM8jy34XBojx8/tkePHlXbZvCWI3mhWuxnuYxGI9vc3LRer2eLxcL+8z//07755hv73//9X/vd735nr1+/tuPjY5t7mpHJh5IQCmolzKWXDbEfG78BDYOGijyNO/W4GE2T57ltbW3Zp59+ap999pndv3/fhr6L08yMbT3ffPON/frXv7aXL19WqdBAar4btQ0VMCmv7d4sXDshtbmUKrXkZEVAzRwZb3q3/Hz3ll1FAkzmghkMiIZgSuI7EhThiuzb21s7Pz+3ly9f2mQyqRyvFX9f1dJz0DgYmZuQsLaRbmNjw/I8t3//93+33/72t/bdd99VlZo3fu4JkhKK+uUDw0uPR9uyD6wliRXmhxqfexyO1jI3Sw8ePLAvv/zSvvzyS3v06FEVu+e+We+7776zX/7yl/b111/b69evbewVrYEkPhp+4tLEtx7ltXVq7kMVK7MBdSKnIAJmeMOcs7tE0d0LYUwcrUDUbuQqvNVqGdLPYGhsc3PTPvnkE/vyyy/t6dOnVcjT6XQsTVO7vLy0y8vLSvqW7tBcXV3Zu3fv7O3bt3Zzc1MxHOlI3e61fBGDt+D8/ve/t2M/MZ+Jo2GYsNUqbvg/zA5dY2FvIapKSuD14KhU2jdfR9/e3rbRaFQdXBtLUWWe53bjx2qc+UlLuajZQk56DIKgqkTN3TzAbOifuMdfSBatxsgK0PAG4KIx5vN5EJVluR97/DzwE/1oLJLTB2gAwgCC4XBom5ub1bHPoD/zGPzKXwaOrcSGsQBAHI2db0gZLE5f7h7mbDarGD2RoycYL0wN5BgpiBWKSv/QR78rvJwY+4nEZO7lwqjUV83wOVimvPGCDOZduo0t3IGL/MDdVX+NInMMai+aiSUtChD7/X6V01dNVpd05lL+wUk9CJIkKXu9XnV0c3j3WqDK4Wp44TmqBrTF7rF2Op0qv02CJHA7NPHjoEAYBMRZQdIbXv/V8BQpxFp40SKxfRRFdnh4aFf+HgyTortSXisVuJYgDqb/QjxkNJcSU9U/EmEuyTA7iqLKbCHpPa9dY96pnzdOIgUQzt3Lbjabtr6+Xh3zdeEvnUt9kUcZBcNDKcFC+Jgv2gLGMgbGnKapHR8fB0G/3y+Hw2GljoIgsJu7I4sr5jYaDbuVTemaUDHPWW9sbFQhVeHvrQDZwfuHr1VEJG4lzkRSSHYs5bWJLHrcyiE2oB9VDTFzT9vSbi7xdOBePX+rdJisW2cSRkZy9mroe7Xv3btn5uHb+vq6ra+vW6PRsIUXTaCa1dSg5hM5Kjp3lT+VDZOMEwZyNfxk5I7sbgHELr2VlsikSne5XNrr16+DaDAY7CMF2MuFL/HRUCbF+yodM49ZuZeLJAMXYRq/Z7UD2c1DFECmDIVQTALmNOSQHyUIKpfn+KkqEiaruqN9vb8lq4HMu/5s19+Ut729bavyBnsdu7mUBhLOKXOWcuhAVtuZyndLKd9KxTOHR/gDaEud/+KueOQuqRKJcwYTkUBlIgOGOAu3qbGsz6rUq1rhA5PJxgWeR0cTTD0HDMFV6gqvO0O1lZ6IqIOCv3MJYRLZvUKYx/OqEdAWymhzmw7IQg9nAnm7wGg0sp5sHoRxqdSwQUOTKlKAMa+d4arPMx/GO5N3pS7dcb71pA3/V3rM7nLyd3u9YAQSO5eyHwbERJWRgRfpcZzzip8GBHBgdi6hgqYbQS790WdROz9FGc44mYg+o9+VtZUgxh7LK4wBmZoW7CKxdyFLt4yn9KXRhh9rpWvrSz8fjUQKDhsazSQ5E7mJXMpxl4DOauEi2oA5Y1YAEpp3XitaLFzq0zT9wwE6gSQfVDpKr1CEADA7clu6ublpm7W30juS3msj8RQqEgWTGSBawiRXHUstNsxn8AoOiAHIuGBsSw7EBwBICGPN3US0pOAhEIdLiY80dbwgEmAsl0u7vLy0w8NDe/v2rR0dHdnl5aVN/VgPNFLspqjlhxcgqUt5PTTAYswwGvABajQHdOYDoMI/VNr+oZQ4dvUaeRkt6iRwVYWrv3QnqygK63ttV9/PEwWdc6/81IHCPNUcqdssQBHUDrYp5OXpgGUhJw3WJY6+UtlRgXkBKBACU4UkAOqeF9X3/TzxqadukbbcnZ8wDKsKldXV1cobH4/HdnR0VC3MFPJqh7afqMQ4Inf8CE9Ld8IwFYArleyagtqZaJmbUgSJOaIRvY+7DBqSgY2CIUyKao/QM0pT3wXZ7XZtbW3N2v6eK2LOiS9IgGQGCJC48trRVy0/uJ3UY+4FgUt/CXji3vi1H/QKoGA2zAA4iVfF9HyxIXMnjD5VrfIzkRP6I3lfyNyrYKBV18ucCO8izy9M/EiNWz+ysuFh5XA4tLYvWKhdvrm5qUwIIA89dYvULsXmq9YD2Jl7+JGkmyPZOrRcLu+Os2QhBJEPJMYzV12owLra4F7+D+oL8YJBJiozdccGCQ5kkx42UMGFRAEWQAiTY9lOXMqmvLa85iKU3RQwu3TT0vXFkI5vR0JqAvGYF7I9CiKSk1j6ycJoG+x/LtudcPagYZ2B7Xa7mjfalfuQaLQPggNP4BuaDb415GjPKIruVr2Gw+G+qhUQogSK3j+bo0IOtgXJoGP+hgGZHJhTlmWVeRsMBtbw3G/pCQQYhATgnQMe1He970LOGUFl0ja+AZKNxmp7fhzp5BO4+ly446NjZ4w9LxtWe0vbeiEcMA3NCCi6fgwIzq1K9UJCKQQCQMMn5sz4uS+RveVJktytZ7PXi4lwIXF0XIpXiMOmoRYAqTMagPBBmkj5BbX9W6VrAuw/iZnUVf9cdlRyv16hJyWsVt6M3aUf5sBCiNVOS8x8tUv7C+VNAZ1Op9ISOh7+B90A2tyd0KmsbWdZVqWZW/JOMPwENIqCHY2BVou8eEFzJMyh6duT4ji2169fH0SNRmOfxky8uKK20gLjTc7vbEseXaXeauFR6c4Pg2u4E2JySDqIpE8uRXQuCRMYA5MVmCpJ/I7kowYhBGoudVODCmYsSEnDzQ4eOA5ZJHXfpexdgwaMiTkAwJmne/f29qzt6/5/DODMk4+qcTQUNnwmZ5jCpziO7fvvvz+IoijaV4IySBCqk6djCK4E5v+l2JXSpbR0+8hkeX7pMenMX/9oIl0wB63BuFBdCi4YA6EhDtIIgVT7JLU15aU4YjAnqB3hQVhGbI0Z4LVQofsYoXjCzIs+0QCh2/PRaGSJvBAPZhWiDdFWseQMoO/S/Q+0iPo0+ApZltnh4eHd2aVIcyBBPFfwgb3FEFSZDEEZjNoQiM+AYAoMzyQnDDNoC2Yznrbs6oSZfMcYmrU378BonmFeEC90O4lkIxl8j/ZquAofDAa2vb1tg8HA1tbWqkUkmIApZP65JKYiqS5p+Rv2GINJwSUC8yFGQ1uEUS9oqdrGI4S7siQQDtPpIPGQBlUHUxW5oRwq3/Zcd0uOeYapAAWpZXJMDAKoLWKyEK0oisr5on8dJ56vMhoQI1Glay2IyTgzeT1FVgvJSnFUcc52dnZs4G8eJM5WGqJt6poCmjFfnEPmY1LMWZdu5gtd0Wz6AewtL8iYz+csyNyVJXV8+wkDhBhBzStNPc5DPcBk1lg1noU5C18F4oxOVBQDRyoT2WudiXNksjkudNUXeWgCMRirEnguZbkwgD6RQEASegj1IYeMtlteRMHS5NOnT6uKm46/+5NSYjbvnZ6eVkUW5s4pQMZBZKXRpC6PBSRMKABVvoQuvQM/AADGM+ZMXnV5fbcVOAhRBaAPgijKULVIpjoOMKPX69nKB95Kz+SWtS2nDKqQ2D2t1VYznoZ4wCCbMWbu8ODBYiYYn461lJKklryuCQ+ZRQQ1T/zkA+G5j7HP3d7iZJFcgmGMOamVJAO0W3kzIGNBwBCe+lyUDnyU5tqfmVk499UWHVxZOy4RVaESBOKQFOxkS9amaXfqa7WFrGQh1ToBJW5QK0kOxTYDSDSHEge7VX9eCcy8IBJzgVCMD4mDwWi4mcf6mav+yR9eW/zeVh+VTiSP+SPlAGciCzIq0QiGCmEky6wII0KLVsskAQSzoziO95kMiMGe0NhE9iozUNRuz7fCNuTQ17EfjwUTmITVnB6kuvjAueYmSZ5AthPx/0IOwYe5gay0oRHwIWB2y50WLhN7yLwZHwCnTa7Iy4gbEj5SlsRphhcXFzb3alLah1GJJETyPK8SR6WEasyJ+2gHIQTEgeRDAB98BBz53XvK7pY4GQiN0wEPz3xXiEqKeryhqEMtKYJppdt9GKWSAzG5D4KiOkHuTA6FB5gABQBFsvXWam9AQGJDV/3cw5wVxFzKaPqEkH3fxJe5Fw/AqUMDmPTNXBkHbaMxYI5J+AldilrmDGbHrnUBPM8BdgC7vEvp3i1xqmoIRbWhUkpZooSA2hk2Cymei2OFWqcdgMVEckmS4BtwoeLnsn6byZETWe2VyaA49fw7wKUfiAvzSleTXNyP5PFcVqtiyfPc2n7IH3RSnwGg12mKdAJ0aFd6Chlfx2rlUQAz9mXRerQxk+wgoAFk9DEej+8yaNzEgJQJIIQLgkBYAIHDAjECSUgkfqBNHW3YP2UybfA79igXSef/9KPjgTHKaEU8bUMcLmUEF30xJpMEx2AwsKZHBgCQdpWWgSxFahv8fz6fW+wbIlb8jQDQB5WMRkDIlOGhayqlg869cM14e3v7h3eEQDgkLxAHJ5DiN4iTeqIeZqWywA9g6DjzMID2c7dTpAUhQiBJHROpAq06OWUeDGQeClCQDUECefsOFxLO3CPJ0nGPSfqx4+8MGfpecphD/8ynlPToQipQoC/fJ+4xR7Vdm6re0agqeAoaxq1tK12m0+lBlCTJflZ7vRANJe6wKMqUUEwQKStlDzMMz5zR19fXFWDSWnFES5YAYYgO2ORN8DCQKxczwKRb8tZA7jH3F0JfzIcpMPpDhOLZQlaRyIuP/OWqsUQet1JnDqHRfIAKusIw5u0MqUqZpnIUR/QBPwcwonkCiXL4FLKkO5/P77bsBq5ySUWGtRQk9lL/px1CGL3obCGvKYSQgKfwzQF9eRUT7fI8balJMMlu0X9Ry2WjBfjUJd18Dvw/kfVgBTQgjuVEZrz70h3PsZxjNvHNCxAZgShFQjVCIBGFABDBKEAAI3Rh3s5EyzzMAuCqnZjvfD6/W+IM5bgqpAGJVclVSQhry5kQHCJBKH6iNQJfdAA8LTmdOJQCP54txLNuiFOiUqgEYcLmZsDEI9b2mTNapeFhDEwC4Jmrf/pnnEizFhZOauvaSHVe82FIEJFnJyREKkvZugOIkW6kV++Jam86REsB3uwuI3kXegVy8pHVThsEpTBNpY0Pf0N47jfJ1ZI7Lj1UmHuZD1IV1NQS0qWMZLJW8w30bwCQylGWiSymQPhE9nWpxshqddylJJigUeBxP36HxsmMif5hNuBqiN1vt9tVGdZAtl7pOHJ5SwCgVKktXWBw2KAjvDIH/Xg8PghBT1mrVlTJLMUW87AyI6ztS+LeUmqhmIRqCqRoKqcLALB620FtUcVklQ27Z+4owQSyarRVikmAcAABTWE1IEW1JEjgqr/lISX3AwiYAeBUO/FBu5jZe35Ax9colLEAHIlW2gKu2LVWLtk4Mpe51wKamUVJkuwz6UCyMQCgFMmoE8XE40bygg+s7EReRYkTs5RNACZeNxcMZSKMDUDyUUYUYkIUFEEt3jax30o4fRZQII34MTxLVS1qknECBiQrlbV8VKx+HwTBeztASUgp6E3evID2Ya4ITeKmdynv9Cb2hm43NzcHUavVqt7rFbpNg8k6kT+GLD4wjuchMoi78dMZ5l5mXCeMtqfERluYq7ZScuPYwEgOX8/kQAHug7GMXedQ1LQZY+N+mEj7SZLYqh/WZ65JEA4FGm3FvlumK29gWEheouPv6JzNZtVmgrkv5iAUKmiFhL70y/gQKMwXc8jvqnQPQiUIDUIEk3BFL2UsCMM+qRrW77DT/B9QIIH/X33BfIDXlJIinBtMhbYBkZgPfeITwJj69SEwqtSH8kZgwMZ9yoRQNAOSCX2XvguEtwLpfnOAyKW0BFyBOHw6TsCMkCj9okajsR9JUp4GUSGx551hMISDSRBALz5BTbohNh8IRx9IkT6v9yV+2n/XS2TVbtYZFbv6x4yEEqot5SWmAIR58TxtAhLa7PmO0tXVVSvFEVSAw2z64KJ/pVMgb9ujDTSNahvGx1gaspWKtlUYGlK+FNxtXrjLoJXiQdc9SOwNA62jPHAJgHCJhDn8DcLCD2gRJXggcXud6bE7RT3fEKiOUCH2uqzFs/X7GDcA0++5AvEPYBptUoO2ublpYe0URwU0zORvpRtzCl1zpZJkUhXPvVZbJIJm0EHH2PzAIQTF3SGBB0G32y2tlqSAIDCnIUdcqSTDhEhsSiixHQMIPnDiUCFF8HxXJzjPq4OCBmiI45RlWbX4P/eDdPBsQ6lCWfp+793d3cpHgREqTRAasDL3IAis5+eufvHFF1aWpV1dXVUvZ5vJluZ6u0itCgZCMZcKW77nAnh6QcfEnVMAS5v8XkhS6+jo6G5HCA+pNOmA6cBEyiA8FxKtUqTPgcpCHBkIAHMBwYcmxsTtA6DL5QywtLY+DkNpt9Fo2HA4rIhRZzBjREqQHojOPaEfYM+ZMWN/C19Qq6cLJWRlLoAVICmd6nOtf5gz9ILpdfqg6QBbdTRW/QZ+h0CqmgMJZfRvRSrtFLXwSm0TRC1lkR1mc1ktpRnLS1/MQxIclKWvoi09396U3ZuBh5RI52AwMJPEx/IDK2iRly/h+GVSkBh4yBTI3vKln92q/YZ/OJaqUs0m2iqsmQHGWIhPBGMVtNAEviCsCCygpI3FYmHn5+dBsLe3V/IPHAI6oSNUZyBZKj6heJyaxalLbin7oVVladv64RmkiO+ZhIkdjd1JK6VOHQAqkGgzkqVPkF+XyoZshMBnIXe98JfamYdey1rqV9cYMjnoPnPTBnAD2RLM96lkLOEF4GMOgAXhgg5oi7y2eXHhuzhDmLKs5YPLWk0WxC7dHi89Cb+Q7SaJrAyR7zZX4YFoANoJJUQIxaNUlHKvaoKgljVaSsUqtj0QxweJZ9wUBCoT6hKIdAEQxsZ4oJfSSkGlmiwTx0zvgzZ6KQ2YI+3xPc8XtbKujm9Pps4ukPyAmVmo4s5HCQqj64PiGX7XQTLApRziSkaHwYJIJlRvEwYsZdUolM14rJQFNRUO8k3yABAbxsFUmEWffA/II0l7zr2CFTBAI6RKvd/6MzMphITezE/HFsjGxOFwWJVnIzTQDx7RTiSlyT1/lQaMpm0zs6jVau2DskCMPtIVuyNTuHTqPfEfqdvK5Fgs0n90CFFNDqaD2XyKWjWKeT670+lUBOh4WXFae32jfcC5VGCZq2/mgJRwH+ZITRLzIX+/dK9eaUXbjD+vHRzL+MpaqAjYTNbsyZVrwgZg0Cf9hH502GAwqGLuub/XW9fEl8vl3V4vUMWlHwan/1cwKJPNU5qz2gEvEF2lTAFjEnfCeO4tZS0ZE0EyhTbTmicN4hVYOjekMaktgjCfhsTeuaQhSffCHOZCf4yFayG7MBkPF2BmjqHkNJgf9+EYQkf6MwfIcDi0xG31xN9mpJv8yzstexdnK8JN7AhEQi3UCQeiYTzP14ldeO4XpvAsToUSvJSs1FI8a80v14FVV8l8ACWgQs0CMMYJICE4Y4IO3AOjdZ78DQ0xfZFsG4ah0CuoLUOGH1hbL92hnfpe7rkcB4Jwtnw3zmg0ssDfOqSAhKbZ3TtC3pfi//v5P/vz/wAw9qHBsXYT2gAAAABJRU5ErkJggg==;" parent="1" vertex="1">
          <mxGeometry x="100" y="169" width="59.04" height="60" as="geometry" />
        </mxCell>
        <mxCell id="fkffijeyhj4ibdIJJxAR-7" value="" style="edgeStyle=orthogonalEdgeStyle;rounded=0;orthogonalLoop=1;jettySize=auto;html=1;startSize=3;endSize=3;" parent="1" source="fkffijeyhj4ibdIJJxAR-2" target="fkffijeyhj4ibdIJJxAR-6" edge="1">
          <mxGeometry relative="1" as="geometry" />
        </mxCell>
        <mxCell id="fkffijeyhj4ibdIJJxAR-2" value="" style="shape=cube;whiteSpace=wrap;html=1;boundedLbl=1;backgroundOutline=1;darkOpacity=0.05;darkOpacity2=0.1;" parent="1" vertex="1">
          <mxGeometry x="250" y="159" width="30" height="80" as="geometry" />
        </mxCell>
        <mxCell id="fkffijeyhj4ibdIJJxAR-5" value="" style="edgeStyle=orthogonalEdgeStyle;rounded=0;orthogonalLoop=1;jettySize=auto;html=1;endSize=3;" parent="1" source="fkffijeyhj4ibdIJJxAR-3" target="fkffijeyhj4ibdIJJxAR-2" edge="1">
          <mxGeometry relative="1" as="geometry" />
        </mxCell>
        <mxCell id="uA4hNmV2qcDG2vF6_LE--26" style="rounded=0;orthogonalLoop=1;jettySize=auto;html=1;exitX=0.5;exitY=1;exitDx=0;exitDy=0;entryX=0.5;entryY=0;entryDx=0;entryDy=0;endSize=3;" edge="1" parent="1" source="fkffijeyhj4ibdIJJxAR-3" target="fkffijeyhj4ibdIJJxAR-65">
          <mxGeometry relative="1" as="geometry" />
        </mxCell>
        <mxCell id="fkffijeyhj4ibdIJJxAR-3" value="ResNet" style="rounded=0;whiteSpace=wrap;html=1;" parent="1" vertex="1">
          <mxGeometry x="180" y="184" width="50" height="30" as="geometry" />
        </mxCell>
        <mxCell id="fkffijeyhj4ibdIJJxAR-6" value="池化" style="ellipse;whiteSpace=wrap;html=1;dashed=1;" parent="1" vertex="1">
          <mxGeometry x="301" y="181" width="39" height="35" as="geometry" />
        </mxCell>
        <mxCell id="fkffijeyhj4ibdIJJxAR-8" value="" style="strokeWidth=1;html=1;shape=mxgraph.flowchart.annotation_2;align=left;labelPosition=right;pointerEvents=1;" parent="1" vertex="1">
          <mxGeometry x="342" y="89" width="20" height="218.75" as="geometry" />
        </mxCell>
        <mxCell id="fkffijeyhj4ibdIJJxAR-9" value="" style="shape=cube;whiteSpace=wrap;html=1;boundedLbl=1;backgroundOutline=1;darkOpacity=0.05;darkOpacity2=0.1;size=5;fillColor=#f8cecc;strokeColor=#b85450;flipV=0;flipH=0;" parent="1" vertex="1">
          <mxGeometry x="384" y="88" width="30" height="15" as="geometry" />
        </mxCell>
        <mxCell id="fkffijeyhj4ibdIJJxAR-10" value="" style="shape=cube;whiteSpace=wrap;html=1;boundedLbl=1;backgroundOutline=1;darkOpacity=0.05;darkOpacity2=0.1;size=10;fillColor=#fff2cc;strokeColor=#d6b656;" parent="1" vertex="1">
          <mxGeometry x="381" y="118" width="40" height="30" as="geometry" />
        </mxCell>
        <mxCell id="fkffijeyhj4ibdIJJxAR-11" value="" style="shape=cube;whiteSpace=wrap;html=1;boundedLbl=1;backgroundOutline=1;darkOpacity=0.05;darkOpacity2=0.1;size=10;fillColor=#dae8fc;strokeColor=#6c8ebf;" parent="1" vertex="1">
          <mxGeometry x="378" y="163" width="50" height="45" as="geometry" />
        </mxCell>
        <mxCell id="fkffijeyhj4ibdIJJxAR-12" value="" style="shape=cube;whiteSpace=wrap;html=1;boundedLbl=1;backgroundOutline=1;darkOpacity=0.05;darkOpacity2=0.1;fillColor=#d5e8d4;strokeColor=#82b366;" parent="1" vertex="1">
          <mxGeometry x="364" y="219" width="70" height="80" as="geometry" />
        </mxCell>
        <mxCell id="fkffijeyhj4ibdIJJxAR-13" value="卷积" style="rounded=0;whiteSpace=wrap;html=1;dashed=1;" parent="1" vertex="1">
          <mxGeometry x="456" y="88" width="50" height="21.5" as="geometry" />
        </mxCell>
        <mxCell id="fkffijeyhj4ibdIJJxAR-14" value="卷积" style="rounded=0;whiteSpace=wrap;html=1;dashed=1;" parent="1" vertex="1">
          <mxGeometry x="456" y="126.5" width="50" height="21.5" as="geometry" />
        </mxCell>
        <mxCell id="fkffijeyhj4ibdIJJxAR-15" value="卷积" style="rounded=0;whiteSpace=wrap;html=1;dashed=1;" parent="1" vertex="1">
          <mxGeometry x="456" y="180.5" width="50" height="21.5" as="geometry" />
        </mxCell>
        <mxCell id="fkffijeyhj4ibdIJJxAR-16" value="卷积" style="rounded=0;whiteSpace=wrap;html=1;dashed=1;" parent="1" vertex="1">
          <mxGeometry x="456" y="257" width="50" height="21.5" as="geometry" />
        </mxCell>
        <mxCell id="fkffijeyhj4ibdIJJxAR-24" value="" style="shape=cube;whiteSpace=wrap;html=1;boundedLbl=1;backgroundOutline=1;darkOpacity=0.05;darkOpacity2=0.1;size=5;fillColor=#f8cecc;strokeColor=#b85450;flipV=0;flipH=0;" parent="1" vertex="1">
          <mxGeometry x="528" y="91.25" width="10" height="15" as="geometry" />
        </mxCell>
        <mxCell id="fkffijeyhj4ibdIJJxAR-25" value="" style="shape=cube;whiteSpace=wrap;html=1;boundedLbl=1;backgroundOutline=1;darkOpacity=0.05;darkOpacity2=0.1;size=10;fillColor=#fff2cc;strokeColor=#d6b656;" parent="1" vertex="1">
          <mxGeometry x="528" y="122.25" width="20" height="30" as="geometry" />
        </mxCell>
        <mxCell id="fkffijeyhj4ibdIJJxAR-26" value="" style="shape=cube;whiteSpace=wrap;html=1;boundedLbl=1;backgroundOutline=1;darkOpacity=0.05;darkOpacity2=0.1;size=10;fillColor=#dae8fc;strokeColor=#6c8ebf;" parent="1" vertex="1">
          <mxGeometry x="528" y="168.75" width="20" height="45" as="geometry" />
        </mxCell>
        <mxCell id="fkffijeyhj4ibdIJJxAR-27" value="" style="shape=cube;whiteSpace=wrap;html=1;boundedLbl=1;backgroundOutline=1;darkOpacity=0.05;darkOpacity2=0.1;fillColor=#d5e8d4;strokeColor=#82b366;" parent="1" vertex="1">
          <mxGeometry x="523" y="227.75" width="30" height="80" as="geometry" />
        </mxCell>
        <mxCell id="fkffijeyhj4ibdIJJxAR-29" style="rounded=0;orthogonalLoop=1;jettySize=auto;html=1;dashed=1;endSize=3;" parent="1" edge="1">
          <mxGeometry relative="1" as="geometry">
            <mxPoint x="508" y="268" as="sourcePoint" />
            <mxPoint x="524" y="268" as="targetPoint" />
          </mxGeometry>
        </mxCell>
        <mxCell id="fkffijeyhj4ibdIJJxAR-31" style="rounded=0;orthogonalLoop=1;jettySize=auto;html=1;dashed=1;endSize=3;" parent="1" edge="1">
          <mxGeometry relative="1" as="geometry">
            <mxPoint x="508" y="192" as="sourcePoint" />
            <mxPoint x="529" y="192" as="targetPoint" />
          </mxGeometry>
        </mxCell>
        <mxCell id="fkffijeyhj4ibdIJJxAR-32" style="rounded=0;orthogonalLoop=1;jettySize=auto;html=1;dashed=1;endSize=3;" parent="1" edge="1">
          <mxGeometry relative="1" as="geometry">
            <mxPoint x="508" y="137" as="sourcePoint" />
            <mxPoint x="528" y="136.91" as="targetPoint" />
          </mxGeometry>
        </mxCell>
        <mxCell id="fkffijeyhj4ibdIJJxAR-33" style="rounded=0;orthogonalLoop=1;jettySize=auto;html=1;dashed=1;endSize=3;" parent="1" edge="1">
          <mxGeometry relative="1" as="geometry">
            <mxPoint x="507" y="98" as="sourcePoint" />
            <mxPoint x="528" y="98" as="targetPoint" />
          </mxGeometry>
        </mxCell>
        <mxCell id="fkffijeyhj4ibdIJJxAR-34" value="" style="strokeWidth=1;html=1;shape=mxgraph.flowchart.annotation_1;align=left;pointerEvents=1;flipV=1;flipH=1;" parent="1" vertex="1">
          <mxGeometry x="556" y="89" width="8" height="219" as="geometry" />
        </mxCell>
        <mxCell id="fkffijeyhj4ibdIJJxAR-36" style="rounded=0;orthogonalLoop=1;jettySize=auto;html=1;dashed=1;endSize=3;" parent="1" edge="1">
          <mxGeometry relative="1" as="geometry">
            <mxPoint x="434" y="97" as="sourcePoint" />
            <mxPoint x="455" y="97" as="targetPoint" />
          </mxGeometry>
        </mxCell>
        <mxCell id="fkffijeyhj4ibdIJJxAR-37" style="rounded=0;orthogonalLoop=1;jettySize=auto;html=1;dashed=1;endSize=3;" parent="1" edge="1">
          <mxGeometry relative="1" as="geometry">
            <mxPoint x="433" y="136" as="sourcePoint" />
            <mxPoint x="454" y="136" as="targetPoint" />
          </mxGeometry>
        </mxCell>
        <mxCell id="fkffijeyhj4ibdIJJxAR-38" style="rounded=0;orthogonalLoop=1;jettySize=auto;html=1;dashed=1;endSize=3;" parent="1" edge="1">
          <mxGeometry relative="1" as="geometry">
            <mxPoint x="434" y="191" as="sourcePoint" />
            <mxPoint x="455" y="191" as="targetPoint" />
          </mxGeometry>
        </mxCell>
        <mxCell id="fkffijeyhj4ibdIJJxAR-39" style="rounded=0;orthogonalLoop=1;jettySize=auto;html=1;dashed=1;endSize=3;" parent="1" edge="1">
          <mxGeometry relative="1" as="geometry">
            <mxPoint x="436" y="267" as="sourcePoint" />
            <mxPoint x="457" y="267" as="targetPoint" />
          </mxGeometry>
        </mxCell>
        <mxCell id="fkffijeyhj4ibdIJJxAR-40" value="上采样" style="ellipse;whiteSpace=wrap;html=1;dashed=1;" parent="1" vertex="1">
          <mxGeometry x="580" y="179.5" width="39" height="35" as="geometry" />
        </mxCell>
        <mxCell id="fkffijeyhj4ibdIJJxAR-41" style="rounded=0;orthogonalLoop=1;jettySize=auto;html=1;endSize=3;" parent="1" edge="1">
          <mxGeometry relative="1" as="geometry">
            <mxPoint x="564" y="198.03" as="sourcePoint" />
            <mxPoint x="580" y="198" as="targetPoint" />
          </mxGeometry>
        </mxCell>
        <mxCell id="fkffijeyhj4ibdIJJxAR-43" style="rounded=0;orthogonalLoop=1;jettySize=auto;html=1;endSize=3;jumpSize=3;" parent="1" edge="1">
          <mxGeometry relative="1" as="geometry">
            <mxPoint x="619" y="197.03" as="sourcePoint" />
            <mxPoint x="630" y="197" as="targetPoint" />
          </mxGeometry>
        </mxCell>
        <mxCell id="fkffijeyhj4ibdIJJxAR-44" value="" style="shape=cube;whiteSpace=wrap;html=1;boundedLbl=1;backgroundOutline=1;darkOpacity=0.05;darkOpacity2=0.1;" parent="1" vertex="1">
          <mxGeometry x="630" y="157" width="30" height="80" as="geometry" />
        </mxCell>
        <mxCell id="fkffijeyhj4ibdIJJxAR-50" value="卷积" style="ellipse;whiteSpace=wrap;html=1;dashed=1;" parent="1" vertex="1">
          <mxGeometry x="651" y="346" width="39" height="35" as="geometry" />
        </mxCell>
        <mxCell id="fkffijeyhj4ibdIJJxAR-52" value="" style="shape=cube;whiteSpace=wrap;html=1;boundedLbl=1;backgroundOutline=1;darkOpacity=0.05;darkOpacity2=0.1;size=17;fillColor=#ffcc99;strokeColor=#36393d;" parent="1" vertex="1">
          <mxGeometry x="615" y="402.75" width="115" height="34.25" as="geometry" />
        </mxCell>
        <mxCell id="fkffijeyhj4ibdIJJxAR-53" value="" style="endArrow=classic;html=1;rounded=0;endSize=3;" parent="1" edge="1">
          <mxGeometry width="50" height="50" relative="1" as="geometry">
            <mxPoint x="671" y="382" as="sourcePoint" />
            <mxPoint x="671" y="401" as="targetPoint" />
          </mxGeometry>
        </mxCell>
        <mxCell id="uA4hNmV2qcDG2vF6_LE--52" style="edgeStyle=orthogonalEdgeStyle;rounded=0;orthogonalLoop=1;jettySize=auto;html=1;exitX=0.5;exitY=1;exitDx=0;exitDy=0;entryX=0.5;entryY=0;entryDx=0;entryDy=0;curved=1;endArrow=none;startFill=0;" edge="1" parent="1" source="fkffijeyhj4ibdIJJxAR-58" target="uA4hNmV2qcDG2vF6_LE--46">
          <mxGeometry relative="1" as="geometry" />
        </mxCell>
        <mxCell id="uA4hNmV2qcDG2vF6_LE--54" style="edgeStyle=orthogonalEdgeStyle;rounded=0;orthogonalLoop=1;jettySize=auto;html=1;entryX=0.5;entryY=0;entryDx=0;entryDy=0;curved=1;endArrow=none;startFill=0;" edge="1" parent="1" source="fkffijeyhj4ibdIJJxAR-58" target="uA4hNmV2qcDG2vF6_LE--44">
          <mxGeometry relative="1" as="geometry" />
        </mxCell>
        <mxCell id="uA4hNmV2qcDG2vF6_LE--55" style="edgeStyle=orthogonalEdgeStyle;rounded=0;orthogonalLoop=1;jettySize=auto;html=1;exitX=0.5;exitY=1;exitDx=0;exitDy=0;entryX=0.5;entryY=0;entryDx=0;entryDy=0;curved=1;endArrow=none;startFill=0;" edge="1" parent="1" source="fkffijeyhj4ibdIJJxAR-58" target="uA4hNmV2qcDG2vF6_LE--47">
          <mxGeometry relative="1" as="geometry" />
        </mxCell>
        <mxCell id="uA4hNmV2qcDG2vF6_LE--56" style="edgeStyle=orthogonalEdgeStyle;rounded=0;orthogonalLoop=1;jettySize=auto;html=1;exitX=0.5;exitY=1;exitDx=0;exitDy=0;entryX=0.5;entryY=0;entryDx=0;entryDy=0;curved=1;endArrow=none;startFill=0;" edge="1" parent="1" source="fkffijeyhj4ibdIJJxAR-58" target="uA4hNmV2qcDG2vF6_LE--48">
          <mxGeometry relative="1" as="geometry" />
        </mxCell>
        <mxCell id="uA4hNmV2qcDG2vF6_LE--57" style="edgeStyle=orthogonalEdgeStyle;rounded=0;orthogonalLoop=1;jettySize=auto;html=1;exitX=0.5;exitY=1;exitDx=0;exitDy=0;entryX=0.5;entryY=0;entryDx=0;entryDy=0;curved=1;endArrow=none;startFill=0;" edge="1" parent="1" source="fkffijeyhj4ibdIJJxAR-58" target="uA4hNmV2qcDG2vF6_LE--49">
          <mxGeometry relative="1" as="geometry" />
        </mxCell>
        <mxCell id="fkffijeyhj4ibdIJJxAR-58" value="预训练" style="rounded=0;whiteSpace=wrap;html=1;dashed=1;" parent="1" vertex="1">
          <mxGeometry x="637.5" y="481" width="70" height="30" as="geometry" />
        </mxCell>
        <mxCell id="fkffijeyhj4ibdIJJxAR-59" value="" style="endArrow=classic;html=1;rounded=0;endSize=3;" parent="1" edge="1">
          <mxGeometry width="50" height="50" relative="1" as="geometry">
            <mxPoint x="672" y="439" as="sourcePoint" />
            <mxPoint x="672" y="478" as="targetPoint" />
          </mxGeometry>
        </mxCell>
        <mxCell id="fkffijeyhj4ibdIJJxAR-60" value="" style="endArrow=classic;html=1;rounded=0;endSize=3;" parent="1" edge="1">
          <mxGeometry width="50" height="50" relative="1" as="geometry">
            <mxPoint x="606" y="418.53" as="sourcePoint" />
            <mxPoint x="526" y="418.53" as="targetPoint" />
          </mxGeometry>
        </mxCell>
        <mxCell id="uA4hNmV2qcDG2vF6_LE--43" style="rounded=0;orthogonalLoop=1;jettySize=auto;html=1;exitX=0.5;exitY=1;exitDx=0;exitDy=0;entryX=0.5;entryY=0;entryDx=0;entryDy=0;" edge="1" parent="1" source="fkffijeyhj4ibdIJJxAR-61" target="uA4hNmV2qcDG2vF6_LE--41">
          <mxGeometry relative="1" as="geometry" />
        </mxCell>
        <mxCell id="fkffijeyhj4ibdIJJxAR-61" value="元学习" style="rounded=0;whiteSpace=wrap;html=1;dashed=1;" parent="1" vertex="1">
          <mxGeometry x="448" y="403.75" width="70" height="30" as="geometry" />
        </mxCell>
        <mxCell id="fkffijeyhj4ibdIJJxAR-64" value="" style="endArrow=classic;html=1;rounded=0;endSize=3;" parent="1" edge="1">
          <mxGeometry width="50" height="50" relative="1" as="geometry">
            <mxPoint x="670" y="244" as="sourcePoint" />
            <mxPoint x="670" y="344" as="targetPoint" />
          </mxGeometry>
        </mxCell>
        <mxCell id="fkffijeyhj4ibdIJJxAR-66" value="编码器" style="rounded=0;whiteSpace=wrap;html=1;fillColor=#d5e8d4;strokeColor=#82b366;" parent="1" vertex="1">
          <mxGeometry x="130" y="457" width="55" height="20" as="geometry" />
        </mxCell>
        <mxCell id="fkffijeyhj4ibdIJJxAR-67" value="动量编码器" style="rounded=0;whiteSpace=wrap;html=1;fillColor=#dae8fc;strokeColor=#6c8ebf;" parent="1" vertex="1">
          <mxGeometry x="220" y="457" width="70" height="20" as="geometry" />
        </mxCell>
        <mxCell id="uA4hNmV2qcDG2vF6_LE--6" value="&lt;font style=&quot;font-size: 15px;&quot;&gt;q&lt;/font&gt;" style="text;html=1;align=center;verticalAlign=middle;resizable=0;points=[];autosize=1;strokeColor=none;fillColor=none;fontFamily=Comic Sans MS;" vertex="1" parent="1">
          <mxGeometry x="142.5" y="388.75" width="30" height="30" as="geometry" />
        </mxCell>
        <mxCell id="uA4hNmV2qcDG2vF6_LE--7" style="edgeStyle=orthogonalEdgeStyle;rounded=0;orthogonalLoop=1;jettySize=auto;html=1;exitX=0.5;exitY=0;exitDx=0;exitDy=0;entryX=0.502;entryY=1.047;entryDx=0;entryDy=0;entryPerimeter=0;endSize=2;" edge="1" parent="1" source="fkffijeyhj4ibdIJJxAR-66" target="uA4hNmV2qcDG2vF6_LE--6">
          <mxGeometry relative="1" as="geometry" />
        </mxCell>
        <mxCell id="uA4hNmV2qcDG2vF6_LE--9" value="相似度" style="text;html=1;align=center;verticalAlign=middle;resizable=0;points=[];autosize=1;strokeColor=none;fillColor=none;fontSize=10;" vertex="1" parent="1">
          <mxGeometry x="180" y="342" width="50" height="30" as="geometry" />
        </mxCell>
        <mxCell id="uA4hNmV2qcDG2vF6_LE--10" style="rounded=0;orthogonalLoop=1;jettySize=auto;html=1;entryX=-0.015;entryY=0.525;entryDx=0;entryDy=0;entryPerimeter=0;edgeStyle=orthogonalEdgeStyle;endSize=2;" edge="1" parent="1" source="uA4hNmV2qcDG2vF6_LE--6" target="uA4hNmV2qcDG2vF6_LE--9">
          <mxGeometry relative="1" as="geometry">
            <Array as="points">
              <mxPoint x="155" y="358" />
            </Array>
          </mxGeometry>
        </mxCell>
        <mxCell id="uA4hNmV2qcDG2vF6_LE--11" value="&lt;span&gt;k&lt;sub&gt;0&amp;nbsp;&amp;nbsp;&lt;/sub&gt;k&lt;sub&gt;1&amp;nbsp;&amp;nbsp;&lt;/sub&gt;k&lt;/span&gt;&lt;span&gt;&lt;sub&gt;2&lt;/sub&gt;&lt;/span&gt;&lt;span&gt;...&lt;/span&gt;" style="text;html=1;align=center;verticalAlign=middle;resizable=0;points=[];autosize=1;strokeColor=none;fillColor=none;fontFamily=Comic Sans MS;fontSize=11;" vertex="1" parent="1">
          <mxGeometry x="215" y="388.75" width="80" height="30" as="geometry" />
        </mxCell>
        <mxCell id="uA4hNmV2qcDG2vF6_LE--12" style="rounded=0;orthogonalLoop=1;jettySize=auto;html=1;exitX=0.5;exitY=0;exitDx=0;exitDy=0;entryX=0.497;entryY=1.065;entryDx=0;entryDy=0;entryPerimeter=0;endSize=2;" edge="1" parent="1" source="fkffijeyhj4ibdIJJxAR-67" target="uA4hNmV2qcDG2vF6_LE--11">
          <mxGeometry relative="1" as="geometry" />
        </mxCell>
        <mxCell id="uA4hNmV2qcDG2vF6_LE--13" value="队列" style="text;html=1;align=center;verticalAlign=middle;resizable=0;points=[];autosize=1;strokeColor=none;fillColor=none;fontSize=8;" vertex="1" parent="1">
          <mxGeometry x="218" y="411.75" width="40" height="20" as="geometry" />
        </mxCell>
        <mxCell id="uA4hNmV2qcDG2vF6_LE--15" style="edgeStyle=orthogonalEdgeStyle;rounded=0;orthogonalLoop=1;jettySize=auto;html=1;entryX=0.997;entryY=0.479;entryDx=0;entryDy=0;entryPerimeter=0;endSize=2;" edge="1" parent="1" source="uA4hNmV2qcDG2vF6_LE--11" target="uA4hNmV2qcDG2vF6_LE--9">
          <mxGeometry relative="1" as="geometry" />
        </mxCell>
        <mxCell id="uA4hNmV2qcDG2vF6_LE--16" value="对比loss" style="text;html=1;align=center;verticalAlign=middle;resizable=0;points=[];autosize=1;strokeColor=none;fillColor=none;fontSize=10;" vertex="1" parent="1">
          <mxGeometry x="175" y="312" width="60" height="30" as="geometry" />
        </mxCell>
        <mxCell id="uA4hNmV2qcDG2vF6_LE--17" value="" style="endArrow=classic;html=1;rounded=0;endSize=2;" edge="1" parent="1">
          <mxGeometry width="50" height="50" relative="1" as="geometry">
            <mxPoint x="204" y="351" as="sourcePoint" />
            <mxPoint x="204" y="333.75" as="targetPoint" />
          </mxGeometry>
        </mxCell>
        <mxCell id="uA4hNmV2qcDG2vF6_LE--19" value="" style="endArrow=classic;html=1;rounded=0;endSize=2;" edge="1" parent="1">
          <mxGeometry width="50" height="50" relative="1" as="geometry">
            <mxPoint x="158" y="495" as="sourcePoint" />
            <mxPoint x="158" y="477.75" as="targetPoint" />
          </mxGeometry>
        </mxCell>
        <mxCell id="uA4hNmV2qcDG2vF6_LE--20" value="x&lt;span style=&quot;font-size: 10px;&quot;&gt;&lt;sup&gt;query&lt;/sup&gt;&lt;/span&gt;" style="text;html=1;align=center;verticalAlign=middle;resizable=0;points=[];autosize=1;strokeColor=none;fillColor=none;fontFamily=Comic Sans MS;" vertex="1" parent="1">
          <mxGeometry x="132.5" y="486" width="50" height="30" as="geometry" />
        </mxCell>
        <mxCell id="uA4hNmV2qcDG2vF6_LE--21" value="" style="shape=curlyBracket;whiteSpace=wrap;html=1;rounded=1;labelPosition=left;verticalLabelPosition=middle;align=right;verticalAlign=middle;direction=south;" vertex="1" parent="1">
          <mxGeometry x="215" y="481" width="80" height="10" as="geometry" />
        </mxCell>
        <mxCell id="uA4hNmV2qcDG2vF6_LE--24" value="x&lt;sub&gt;0&lt;/sub&gt; x&lt;sub&gt;1&lt;/sub&gt; x&lt;sub&gt;2&lt;/sub&gt; ..." style="text;html=1;align=center;verticalAlign=middle;resizable=0;points=[];autosize=1;strokeColor=none;fillColor=none;fontFamily=Comic Sans MS;" vertex="1" parent="1">
          <mxGeometry x="221" y="481" width="80" height="30" as="geometry" />
        </mxCell>
        <mxCell id="uA4hNmV2qcDG2vF6_LE--25" value="key:" style="text;html=1;align=center;verticalAlign=middle;resizable=0;points=[];autosize=1;strokeColor=none;fillColor=none;fontFamily=Comic Sans MS;fontSize=8;" vertex="1" parent="1">
          <mxGeometry x="195" y="486" width="40" height="20" as="geometry" />
        </mxCell>
        <mxCell id="uA4hNmV2qcDG2vF6_LE--31" value="" style="endArrow=classic;html=1;rounded=0;" edge="1" parent="1">
          <mxGeometry width="50" height="50" relative="1" as="geometry">
            <mxPoint x="473" y="584" as="sourcePoint" />
            <mxPoint x="473" y="497" as="targetPoint" />
          </mxGeometry>
        </mxCell>
        <mxCell id="uA4hNmV2qcDG2vF6_LE--32" value="" style="endArrow=classic;html=1;rounded=0;" edge="1" parent="1">
          <mxGeometry width="50" height="50" relative="1" as="geometry">
            <mxPoint x="473" y="584" as="sourcePoint" />
            <mxPoint x="566" y="614" as="targetPoint" />
          </mxGeometry>
        </mxCell>
        <mxCell id="uA4hNmV2qcDG2vF6_LE--33" value="" style="endArrow=classic;html=1;rounded=0;" edge="1" parent="1">
          <mxGeometry width="50" height="50" relative="1" as="geometry">
            <mxPoint x="474" y="584" as="sourcePoint" />
            <mxPoint x="419" y="629" as="targetPoint" />
          </mxGeometry>
        </mxCell>
        <mxCell id="uA4hNmV2qcDG2vF6_LE--34" value="" style="verticalLabelPosition=bottom;verticalAlign=top;html=1;shape=mxgraph.basic.4_point_star_2;dx=0.8;fillColor=#dae8fc;strokeColor=#6c8ebf;" vertex="1" parent="1">
          <mxGeometry x="434" y="538" width="26" height="24" as="geometry" />
        </mxCell>
        <mxCell id="uA4hNmV2qcDG2vF6_LE--35" value="" style="verticalLabelPosition=bottom;verticalAlign=top;html=1;shape=mxgraph.basic.4_point_star_2;dx=0.8;fillColor=#fff2cc;strokeColor=#d6b656;" vertex="1" parent="1">
          <mxGeometry x="465" y="588" width="26" height="24" as="geometry" />
        </mxCell>
        <mxCell id="uA4hNmV2qcDG2vF6_LE--36" value="" style="verticalLabelPosition=bottom;verticalAlign=top;html=1;shape=mxgraph.basic.4_point_star_2;dx=0.8;fillColor=#e1d5e7;strokeColor=#9673a6;" vertex="1" parent="1">
          <mxGeometry x="467" y="555" width="26" height="24" as="geometry" />
        </mxCell>
        <mxCell id="uA4hNmV2qcDG2vF6_LE--37" value="" style="verticalLabelPosition=bottom;verticalAlign=top;html=1;shape=mxgraph.basic.4_point_star_2;dx=0.8;" vertex="1" parent="1">
          <mxGeometry x="514" y="522" width="26" height="24" as="geometry" />
        </mxCell>
        <mxCell id="uA4hNmV2qcDG2vF6_LE--38" value="" style="endArrow=none;dashed=1;html=1;dashPattern=1 3;strokeWidth=2;rounded=0;entryX=0;entryY=0.5;entryDx=0;entryDy=0;entryPerimeter=0;" edge="1" parent="1" target="uA4hNmV2qcDG2vF6_LE--37">
          <mxGeometry width="50" height="50" relative="1" as="geometry">
            <mxPoint x="458" y="551" as="sourcePoint" />
            <mxPoint x="503" y="518" as="targetPoint" />
          </mxGeometry>
        </mxCell>
        <mxCell id="uA4hNmV2qcDG2vF6_LE--39" value="" style="endArrow=none;dashed=1;html=1;dashPattern=1 3;strokeWidth=2;rounded=0;entryX=0;entryY=0.5;entryDx=0;entryDy=0;entryPerimeter=0;exitX=1;exitY=0.5;exitDx=0;exitDy=0;exitPerimeter=0;" edge="1" parent="1" source="uA4hNmV2qcDG2vF6_LE--36">
          <mxGeometry width="50" height="50" relative="1" as="geometry">
            <mxPoint x="459" y="557" as="sourcePoint" />
            <mxPoint x="515" y="540" as="targetPoint" />
          </mxGeometry>
        </mxCell>
        <mxCell id="uA4hNmV2qcDG2vF6_LE--40" style="rounded=0;orthogonalLoop=1;jettySize=auto;html=1;exitX=1;exitY=0.5;exitDx=0;exitDy=0;exitPerimeter=0;entryX=0.5;entryY=1;entryDx=0;entryDy=0;entryPerimeter=0;dashed=1;endArrow=none;startFill=0;" edge="1" parent="1" source="uA4hNmV2qcDG2vF6_LE--35" target="uA4hNmV2qcDG2vF6_LE--37">
          <mxGeometry relative="1" as="geometry" />
        </mxCell>
        <mxCell id="uA4hNmV2qcDG2vF6_LE--42" value="原型网络" style="text;html=1;align=center;verticalAlign=middle;resizable=0;points=[];autosize=1;strokeColor=none;fillColor=none;" vertex="1" parent="1">
          <mxGeometry x="448" y="633" width="70" height="30" as="geometry" />
        </mxCell>
        <mxCell id="uA4hNmV2qcDG2vF6_LE--44" value="" style="rounded=0;whiteSpace=wrap;html=1;fillColor=#dae8fc;strokeColor=#6c8ebf;" vertex="1" parent="1">
          <mxGeometry x="623" y="548" width="21" height="22" as="geometry" />
        </mxCell>
        <mxCell id="uA4hNmV2qcDG2vF6_LE--46" value="" style="rounded=0;whiteSpace=wrap;html=1;fillColor=#d5e8d4;strokeColor=#82b366;" vertex="1" parent="1">
          <mxGeometry x="644" y="548" width="21" height="22" as="geometry" />
        </mxCell>
        <mxCell id="uA4hNmV2qcDG2vF6_LE--63" style="edgeStyle=orthogonalEdgeStyle;rounded=0;orthogonalLoop=1;jettySize=auto;html=1;exitX=0.5;exitY=1;exitDx=0;exitDy=0;entryX=0.5;entryY=0;entryDx=0;entryDy=0;" edge="1" parent="1" source="uA4hNmV2qcDG2vF6_LE--47" target="uA4hNmV2qcDG2vF6_LE--60">
          <mxGeometry relative="1" as="geometry" />
        </mxCell>
        <mxCell id="uA4hNmV2qcDG2vF6_LE--47" value="" style="rounded=0;whiteSpace=wrap;html=1;fillColor=#ffe6cc;strokeColor=#d79b00;" vertex="1" parent="1">
          <mxGeometry x="664" y="548" width="21" height="22" as="geometry" />
        </mxCell>
        <mxCell id="uA4hNmV2qcDG2vF6_LE--48" value="" style="rounded=0;whiteSpace=wrap;html=1;fillColor=#fff2cc;strokeColor=#d6b656;" vertex="1" parent="1">
          <mxGeometry x="684" y="548" width="21" height="22" as="geometry" />
        </mxCell>
        <mxCell id="uA4hNmV2qcDG2vF6_LE--49" value="" style="rounded=0;whiteSpace=wrap;html=1;fillColor=#e1d5e7;strokeColor=#9673a6;" vertex="1" parent="1">
          <mxGeometry x="705" y="548" width="21" height="22" as="geometry" />
        </mxCell>
        <mxCell id="uA4hNmV2qcDG2vF6_LE--58" value="" style="rounded=0;whiteSpace=wrap;html=1;" vertex="1" parent="1">
          <mxGeometry x="623" y="592" width="21" height="22" as="geometry" />
        </mxCell>
        <mxCell id="uA4hNmV2qcDG2vF6_LE--59" value="" style="rounded=0;whiteSpace=wrap;html=1;" vertex="1" parent="1">
          <mxGeometry x="644" y="592" width="21" height="22" as="geometry" />
        </mxCell>
        <mxCell id="uA4hNmV2qcDG2vF6_LE--60" value="" style="rounded=0;whiteSpace=wrap;html=1;fillColor=#e51400;strokeColor=#B20000;fontColor=#ffffff;" vertex="1" parent="1">
          <mxGeometry x="664" y="592" width="21" height="22" as="geometry" />
        </mxCell>
        <mxCell id="uA4hNmV2qcDG2vF6_LE--61" value="" style="rounded=0;whiteSpace=wrap;html=1;" vertex="1" parent="1">
          <mxGeometry x="684" y="592" width="21" height="22" as="geometry" />
        </mxCell>
        <mxCell id="uA4hNmV2qcDG2vF6_LE--62" value="" style="rounded=0;whiteSpace=wrap;html=1;" vertex="1" parent="1">
          <mxGeometry x="705" y="592" width="21" height="22" as="geometry" />
        </mxCell>
      </root>
    </mxGraphModel>
  </diagram>
</mxfile>
